<svg xmlns="http://www.w3.org/2000/svg" xmlns:xlink="http://www.w3.org/1999/xlink" viewBox="0 0 1962.09 608.35"><defs><style>.cls-1,.cls-7,.cls-8{fill:none;}.cls-2{clip-path:url(#clip-path);}.cls-3{fill:#dfe1eb;}.cls-4{fill:#db9f01;}.cls-5{fill:#010101;}.cls-6{fill:#dc9a16;}.cls-7,.cls-8{stroke:#010101;stroke-miterlimit:10;}.cls-7{stroke-width:1.64px;}.cls-8{stroke-width:3.29px;}</style><clipPath id="clip-path" transform="translate(-12.85)"><rect class="cls-1" width="1987.79" height="612.28"/></clipPath></defs><title>logo</title><g id="Ebene_2" data-name="Ebene 2"><g id="Ebene_1-2" data-name="Ebene 1"><g class="cls-2"><path class="cls-3" d="M41.63,103.48c-6.18-7.36-3.72-7.23-9-14.39S28.14,81,29.94,77.4s16.19-3.59,21.58-4.49,17.09-2.7,21.58,0,3.49,3.56,13.5,6.29,16.06,9.86,23.38,6.29,22.36,1.77,34.17-.9,27.76,4.47,31.47.9,7.2,0,15.29-3.59,9-2.7,15.29-4.5-1.79-.9,6.3-1.8,16.18,0,19.78,1.8,26,6.27,32.38,5.4,19.67,2.67,27,.9,15.18-1.84,21.59-1.8,14.27,5.36,18.89,2.69,16.06,6.27,19.78,1.8,14.27,6.27,16.19.9,9.25,1.84,9.89-.9,16.19-.9,16.19-.9,45.75-3.63,49.46-3.59,9.89,2.69,15.29,3.59,4.5.9,9.89.9,8.1-.89,18.89,0,16.18,2.7,22.48,4.5,3.91,8.22,11.4,4.11,11.08-3.22,15.58-4.11,8.25.69,14-1.9,14.76-6.19,13.86-2.6,1.79,9.9-1.81,13.49-1.79,14.39-1.79,14.39l8.09,7.2,9,12.58v8.1l-1.8,9.89s-5.39,26.08-4.49,31.48,3.6,7.19,3.6,14.39-4.5,21.58-4.5,25.18,10.79,23.38,9.89,28.78-7.19,5.39-7.19,9.89-.9,5.39,1.8,9,5.39,8.1,2.69,8.1-3.6,1.79-5.39,4.49.91,2.54.45,7.57,1.35,26.61,1.35,26.61l-29.68,71-41.37,18s-145.69-18-151.08-19.78-18-2.69-24.28-3.59-58.45,3.58-62.95,1.79-138.5-1.79-148.39-2.69-24.28-1.81-28.78-4.51S78.5,374.17,74,372.37a56.25,56.25,0,0,0-10.8-2.69s-7.19,2.69-9.89,2.69-8.09,2.7-8.09,2.7l-10.79,4.49-4.5,1.81s8.09-14.39,9.89-18,2.7-9,3.6-12.6,0-5.39-2.7-9L38,338.2s-1.79-7.19-.9-12.59.9-8.09,2.7-11.69,1.8-2.7,2.7-7.19.9,4.49.9-4.5,2.7-8.1,0-13.49-9.89,1.8-2.7-5.4,10.79-2.7,7.2-7.19-1.8-.9-3.6-4.5-4.5-6.29-5.4-9,.9-2.7-3.59-7.2-2.71-.89-4.5-4.49-4.5-6.3-2.7-10.79,4.5-16.2,7.2-18.89,7.19-2.7,4.49-8.09-1.8-6.3-4.49-9,0-4.5-5.4-6.29l-5.4-1.8s-3.6-7.19,2.7-11.69,6.3-3.59,9-9.89,7.19-9,9-11.7,3.59-1.8,0-7.19,1.79-4.49-1.8-9-4.5-7.2-7.19-9-1.8-2.7-5.4-4.5,1.79,0-3.6-1.79S12.85,126,12.85,126s21.59,0,25.18-3.59a70.35,70.35,0,0,0,7.2-9Z" transform="translate(-12.85)"/><path class="cls-4" d="M597.88,260.62l-4,.32s-11.1-13.83-20.32-19.59-50.13-27.09-76.64-29.4-72-8.64-115.84,13.84-53.59,35.73-58.78,45-10.37,9.79-10.95,12.1,1.15,4,.58,10.37-3.46,11.53-5.77,11.53-7.49,4.61-6.91,8.06,3.46,4.61,2.88,6.92-3.46,12.1-4,13.83,0,2.31,0,5.76-2.88,5.19-1.15,7.5,4.61,2.3,6.92-5.19,4.61-20.17,10.37-25.93S337.87,297.24,350,288.6s27.66-22.47,29.39-23.05,8.07,1.15,9.8,1.73,24.78-4,30-6.34,10.95-2.31,15-2.88,11.53-2.31,15.56-.58,9.22-.58,10.95-1.15,6.92,2.3,13.83,4.61,16.71,2.3,21.32,2.3,17.29-2.3,20.75-.57,6.34,4,9.79,2.88,13.84,5.19,19.6,6.34,13.26,5.76,18.44,10.37,4,6.34,9.22,8.65,9.22,6.33,13.83,10.37,6.34,6.34,8.07,6.91,4.61,4,5.19,10.38,1.15,13.25,4.61,19.59,2.3,17.87,0,21.32-13.83,13.83-15.56,17.87-3.46,6.92-4.62,10.95-20.74,24.2-28.81,30.54-30,12.1-32.84,12.68-11,2.31-16.14,3.46-16.14,3.46-22.48,3.46-24.2,1.73-27.66.57-13.83-4.61-17.29-5.18-10.95-6.34-13.25-4-13.25,6.34-16.72,6.92-6.91,2.3-9.79,3.46-5.19-1.73-9.8-5.77-15.56-13.25-19-17.86-11.52-12.68-15-16.14-5.76-7.49-8.07-11.53-7.49-10.94-5.76-13.25,3.46-13.26,5.19-16.14,9.22-8.06,9.22-10.37,9.22-9.8,12.67-10.95a95.52,95.52,0,0,0,11.53-4.61c3.46-1.73,7.49-5.19,10.37-4s13.84,2.88,19,1.15,8.07-2.88,12.1-3.46a47.17,47.17,0,0,1,12.68,0c3.46.58,9.8,1.73,11.53,1.15s5.76-1.72,9.8,0,19,6.92,23,7.5a80.61,80.61,0,0,1,16.14,4c6.34,2.31,8.07,4,12.11,7.49s5.76,6.34,6.91,10.37-2.3,13.26.58,16.72,4,1.15,6.91,0,7.5-9.8,8.64-15,.58-6.91-1.73-12.67-8.06-18.45-10.94-21.9-5.76-9.8-10.37-12.11S494,304.74,487.7,303s-19-6.34-22.47-6.34A55.41,55.41,0,0,0,452,298.4c-4,1.15-19.6.57-23.06.57S412.21,300.7,407,300.7s-12.68,3.46-19,6.34-10.95,3.46-16.72,5.76-12.1,8.65-15,12.11-9.8,12.1-10.37,13.83c0,0-5.77,6.34-6.92,8.64s-4,6.34-2.3,11.53,1.15,12.1,0,16.13-5.19,10.38-4,13.83S335.56,401,337.87,405s6.91,9.22,8.07,10.95l10.37,12.1s-8.64.58-12.1,1.73-17.29,1.15-21.32,1.15-25.94-.57-30-1.15-9.8.58-15.56.58-13.83,1.73-17.87,2.3-6.91,4-10.37,2.31-7.49-4-7.49-4,8.64-9.79,11-12.68a14.1,14.1,0,0,1,6.34-4s5.18-8.64-3.46-8.07a69.24,69.24,0,0,1-24.2-2.3c-8.65-2.31-18.45-1.16-24.21-1.73s-22.47-2.88-27.66-2.31-11.53,1.73-16.72.58-6.91-4.61-12.09-4-10.38-1.16-14.41-1.16a64.45,64.45,0,0,1-11.53-1.15c-2.88-.58-8.06-2.88-13.26-1.72s-10.36.57-15,1.14a109.76,109.76,0,0,1-19.6,0c-6.92-.57-9.22,1.73-15,.58s-12.09,0-15.55-.58-2.88-4.61,1.15-5.18,13.26-3.46,16.13-4,5.19.57,6.92,0,5.76-4,9.8-4,11.52-1.73,15.56-2.88,8.64-5.19,11.52-5.76,11.53-1.16,17.29-1.73,12.68-3.46,17.29-2.88,9.8,2.3,12.1,1.72,4.61-4.61,7.5-3.45,4.61,2.88,6.91,2.88,16.71-1.73,22.48-4,23.62-9.22,23.62-9.22a84.41,84.41,0,0,1,9.8-1.73c5.19-.57,6.34,0,8.07-1.72s.57-2.89,6.34-2.31,6.34,1.15,9.79.58,9.22-2.31,9.22-2.31-10.94-5.76-19.59-10.37-17.86-9.22-22.47-10.95-14.41-4-24.21-6.92-24.21-11.52-30-11.52a53.29,53.29,0,0,1-16.72-2.31c-5.18-1.73-17.29-2.88-19.59-3.45s-11-2.31-14.41-1.73-6.34,1.15-9.79-.58-5.19-1.73-8.07-1.15-6.92.57-8.65-.58-2.3-2.88-12.68-7.49-20.75-9.22-22.47-9.22-15-8.07-15-8.07,15.56,3.46,19.59,2.88,6.33-.57,10.37-1.15,6.92-.58,10.37.58,20.18,5.76,28.24,5.18,22.48-2.3,26.51-2.3,36.89-1.16,41.5-1.16h28.81c8.64,0,24.2-.57,30,0s19.59,1.16,27.66,4,23.63,7.49,23.63,7.49-9.22-5.19-15-10.37-10.37-9.8-15-12.1-12.68-8.65-15.56-12.11-10.37-8.06-13.83-10.37-19-8.64-21.9-11.53a30.08,30.08,0,0,0-8.07-6.33c-4-2.31-13.25-7.5-19.59-10.38s-13.83-8.07-19.6-12.1a172.68,172.68,0,0,0-16.13-9.8,88.4,88.4,0,0,1-17.29-12.67c-4.61-4.61-22.47-21.9-22.47-21.9s38.61,17.29,48.4,20.17,25.94,6.91,34.58,8.64,30.54,9.22,38,12.1,20.17,9.22,25.36,11.53A44.29,44.29,0,0,0,260,214.45c3.76-.29,15-1,21.4.72s20.1,6.36,21.54,6.79S314.31,228,315,228a49.6,49.6,0,0,1,5.06,1.3s-5.92-8.53-6.21-9-4.05-6.65-4.48-7.81-1.89-7.24-2-8.24-5.63-15.76-7.66-19.23S286.27,167.75,284,166.45s-6.21-4.48-6.93-5.64-7.81-7.37-9.55-9.1-4.48-3.33-6.36-4.78-4.63-4.19-4.63-6.07-.14-5.21-1-7.22a31,31,0,0,1-1.45-8c0-1.15-1.89-7.51-3-8.82s-5.35-4.34-7.52-6.22a26.75,26.75,0,0,1-4.19-5c-1-1.3-3-3.62-3.9-4.78S230.61,95.9,229.6,94a25.45,25.45,0,0,0-3.91-5.21c-1.16-1.16-4.33-3.76-5.2-4.63s-1.45-5.2.43-5.35,4.91,1.74,6.51,2.32,25.81,12.21,29.51,14.76,4.86,4.86,6.94,6.25S287,113.5,290.72,114.66s11.33,4.63,12.95,6.48,2.55,3.94,4.39,4.86,2.08,3,2.55,4.62,12.95,16.65,17.12,19.43,9,7.63,11.56,9.72a23.49,23.49,0,0,0,8.1,4.39,21.44,21.44,0,0,1,5.09,1.62c2.77,1.16,2.77.93,4.39,3.24s1.63,3.24,3.47,4.63,2.09,2.78,4.17,3,7.64,3.24,10.41,4.85,2.31,1.86,5.32,3.47,3.24,1.62,4.39,2.78,1.16,2.09,2.78,3.47,1.85,2.77,3.47,3.93,3.23,1.85,3.93,2.78-1.39-8.34-1.16-11.8a80.3,80.3,0,0,0-.23-10.87c-.23-2.55-1.16-5.09-.92-7.86a71.37,71.37,0,0,0,.69-8.34c0-3.92-.47-6.24-.23-9s.69-12.25,0-16.19-7.17-21.74-8.56-25.68-2.55-7.63-3.47-10.17a43.52,43.52,0,0,1-2.08-8.79,22.56,22.56,0,0,1-.23-5.56c.23-2.31-1.16-10.18-1.62-12.49a75.83,75.83,0,0,1-1.16-9.48c0-1.85.93-4.16-.23-7.17s-1.38-3-1.85-5.78a27.6,27.6,0,0,1-.46-6.25c0-3,.7-4.39.46-6.94s.24-2.54,0-4.4-.23-4.62-.23-4.62,19.89,22.9,24.29,27.53,4.86,6.48,7.86,9.72a40.7,40.7,0,0,1,5.78,7.16c2.32,3.47,1.15,3.93,3.24,6s.93-.93,5.09,6.24,8.56,14.57,10.18,16.89,9.48,16.65,11.34,20.12,1.62,2.78,4.16,7A80.29,80.29,0,0,1,451,138c1.85,4.16,1.62,5.32,3,9.25s.23,5.31,2.31,8.56a82.72,82.72,0,0,0,6.25,8.1c2.08,2.54,5.31,6,7.62,8.78s3.24,4.39,5.32,6.71,3.48,4.4,4.63,5.32,8.1-6.48,9.25-10.87a22.3,22.3,0,0,1,4.17-8.56c1.15-1.38,2.31-3,3.7-3.7s2.55-3.94,3-6.48,3-7.17,3.47-8.1,9.25-25.2,12.72-34.23,4.63-13,5.09-17.81,1.16-7.39.7-10.87-1.16-8.56-.7-11.11,2.31-6.47,2.78-8.09,0-6.71,1.15-9.71,3-4.17,3.7-6a23.22,23.22,0,0,1,3-5.78c1.39-1.85,4.39-5.32,5.55-6.94s1.85-4.17,2.78-5.33,2.54-3,2.54-3-3,12.72-2.32,19.67,1.63,15,2.78,18.27a41.43,41.43,0,0,1,2.08,7.63,80.67,80.67,0,0,0,2.54,10.18c.69,1.62,2.08,3.24,3,5.09s2.54,7.17,3.93,9.49,4.4,8.1,5.56,9.71,4.61,6.48,6,10.88,1.39,6,.69,9.24-2.08,5.33-2.31,8.1,1.85,8.78.46,10.4a8.32,8.32,0,0,0-2.54,5.55c-.47,3.24-2.78,6.71-1.62,10.18s2.54,5.55,2.54,8.56-.69,3.69,0,6.47.93,4.4,1.62,6.71a34.18,34.18,0,0,1,1.39,5.1,27.21,27.21,0,0,0,1.16,4.16s4.63-5.09,7.17-8.1,3.93-5.78,5.08-6.94,2.32-1.62,3.7-3,2.78-4.4,3.94-6,2.31-4.17,3.24-5.55,3.24-3.7,3.7-4.4a8,8,0,0,1,3-2.54c.92-.23,3,1.39,3.47,2.77s.22,2.09.46,5.32a12,12,0,0,0,2.31,6.48c1.16,1.86,1.15,3.23,2.08,4.17a6.23,6.23,0,0,1,1.85,3.93c0,1.38-2.31,5.55-3.93,7.63s-3,8.09-4.16,9.72-1.85,1.39-3.24,3.47-2.31,3.24-2.31,5.55-.93,3.47.69,5.09,4.86,5.09,6,9,.47,3.93,2.09,7.4,1.39,4.4,2.54,5.32,3.24.7,2.31,3.24a32.33,32.33,0,0,1-3.7,6.48c-.92,1.39-.69,4.16-1.85,6.94s-.92,3.7-1.61,5.78.2,4.62-3,5.32" transform="translate(-12.85)"/></g><polygon class="cls-5" points="954.61 89.77 717.3 89.77 717.3 183.41 813.51 183.41 813.51 455.37 907.16 455.37 907.16 183.41 954.61 183.41 954.61 89.77"/><rect class="cls-6" x="1868.43" y="361.98" width="93.66" height="93.38"/><rect class="cls-6" x="954.85" y="182.12" width="93.65" height="273.24"/><rect class="cls-6" x="954.85" width="93.65" height="88.51"/><g class="cls-2"><path class="cls-5" d="M1319.31,190.48h39.86V170.8q0-33,7.29-49.23t26.83-26.45q19.53-10.22,49.44-10.22a206.84,206.84,0,0,1,60.06,8.87L1493.07,142a146.61,146.61,0,0,0-33-3.94q-15.58,0-22.36,7T1431,172v18.45h53.66v54.4H1431v207h-71.81v-207h-39.86Z" transform="translate(-12.85)"/><path class="cls-7" d="M1319.31,190.48h39.86V170.8q0-33,7.29-49.23t26.83-26.45q19.53-10.22,49.44-10.22a206.84,206.84,0,0,1,60.06,8.87L1493.07,142a146.61,146.61,0,0,0-33-3.94q-15.58,0-22.36,7T1431,172v18.45h53.66v54.4H1431v207h-71.81v-207h-39.86Z" transform="translate(-12.85)"/><path class="cls-5" d="M1658.38,282.52q-5.73-29.68-24.18-42.59T1593,230.72q-24.32,4-37.45,23t-8.22,47Zm7.27,70.12,75.91-.66q-8.05,40-35.58,64.73T1632.26,449q-73.23,12-115.71-26.47-33.63-30.9-42.57-84.92-10.71-64.53,19.7-107t86.15-51.68q62.61-10.26,105.2,22t54,111.55L1553,343q5.89,30.4,25.87,44.6t45.65,10q17.42-2.85,27.87-13.61t13.26-31.29" transform="translate(-12.85)"/><path class="cls-7" d="M1658.38,282.52q-5.73-29.68-24.18-42.59T1593,230.72q-24.32,4-37.45,23t-8.22,47Zm7.27,70.12,75.91-.66q-8.05,40-35.58,64.73T1632.26,449q-73.23,12-115.71-26.47-33.63-30.9-42.57-84.92-10.71-64.53,19.7-107t86.15-51.68q62.61-10.26,105.2,22t54,111.55L1553,343q5.89,30.4,25.87,44.6t45.65,10q17.42-2.85,27.87-13.61T1665.65,352.64Z" transform="translate(-12.85)"/><path class="cls-5" d="M1252.27,282.52q-5.74-29.68-24.18-42.59t-41.17-9.21q-24.3,4-37.44,23t-8.22,47Zm7.27,70.12,75.91-.66q-8.07,40-35.58,64.73T1226.14,449q-73.23,12-115.7-26.47-33.63-30.9-42.58-84.92-10.71-64.53,19.71-107t86.15-51.68q62.61-10.26,105.2,22t54,111.55L1146.89,343q5.89,30.4,25.87,44.6t45.64,10q17.41-2.85,27.88-13.61t13.26-31.29" transform="translate(-12.85)"/><path class="cls-7" d="M1252.27,282.52q-5.74-29.68-24.18-42.59t-41.17-9.21q-24.3,4-37.44,23t-8.22,47Zm7.27,70.12,75.91-.66q-8.07,40-35.58,64.73T1226.14,449q-73.23,12-115.7-26.47-33.63-30.9-42.58-84.92-10.71-64.53,19.71-107t86.15-51.68q62.61-10.26,105.2,22t54,111.55L1146.89,343q5.89,30.4,25.87,44.6t45.64,10q17.41-2.85,27.88-13.61T1259.54,352.64Z" transform="translate(-12.85)"/></g><rect class="cls-5" x="1734.82" y="100.13" width="78.33" height="348.22"/><rect class="cls-8" x="1734.82" y="100.13" width="78.33" height="348.22"/><g class="cls-2"><path class="cls-5" d="M21.48,600.67c0-5.31,3.54-9.14,8.56-9.14,4.13,0,7.08,3.39,7.08,7.82,0,5.9-4.13,9-8.41,9S21.48,605.1,21.48,600.67Z" transform="translate(-12.85)"/><path class="cls-5" d="M56.15,600.67c0-5.31,3.54-9.14,8.56-9.14,4.13,0,7.08,3.39,7.08,7.82,0,5.9-4.13,9-8.41,9S56.15,605.1,56.15,600.67Z" transform="translate(-12.85)"/><path class="cls-5" d="M90.82,600.67c0-5.31,3.54-9.14,8.56-9.14,4.13,0,7.08,3.39,7.08,7.82,0,5.9-4.13,9-8.41,9S90.82,605.1,90.82,600.67Z" transform="translate(-12.85)"/><path class="cls-5" d="M267.71,514.66c-9.74,1.48-10.62,1.92-16.67,13.72-5.61,10.62-18.59,38.51-37.62,79.67h-4.58l-12-73.18h-.44l-35.26,73.18h-4.58l-8.85-79.23c-1.33-12.54-1.92-13-11.95-14.16l.89-3.84H170l-1,3.84-3.69.59c-5.9.89-6.79,1.62-5.9,9.74l6.34,61.67h.3l35-74.07h4.28l12.25,74.22h.29c9.15-20.07,21.84-47.07,27.44-62,3-7.38,2.07-8.56-5.31-9.59l-3.83-.59.88-3.84H268.6Z" transform="translate(-12.85)"/><path class="cls-5" d="M266.52,585.33c0-19.18,10.18-33.79,22.43-40.28,5.31-2.8,11.36-4.72,15.93-4.72,12.25,0,19.62,8.41,19.62,23,0,12.69-5.46,27.14-15.78,35.7-6.35,5.31-14.46,9.3-22.72,9.3C272,608.35,266.52,597.28,266.52,585.33ZM296,601.56c8-3.39,16.08-19,16.08-37.92,0-11.95-5.16-17.7-11.95-17.7a13.1,13.1,0,0,0-5.61,1.33c-5.75,2.5-15.64,14.6-15.64,37.32,0,10.92,4.58,17.85,12.4,17.85A12.25,12.25,0,0,0,296,601.56Z" transform="translate(-12.85)"/><path class="cls-5" d="M384.4,594.18c-7.82,9-17,14.17-21.25,14.17-3.83,0-4.86-4.13-2.5-14.31l7.82-34.23c1.77-7.82,1.18-10.48-1.18-10.48-6.79,0-24.05,16.53-31.28,29.36-1.48,6.49-4.13,19.62-5.46,26.85a64.86,64.86,0,0,0-10.48,2.81l-1-1.18c6.34-28.48,12.84-58.28,18.59-88.53,1.62-7.67.89-8.11-4.87-8.26l-4.28-.15.45-3.54c11.65-1.18,19.62-5.16,21.68-5.16,1.33,0,1.48,1.18.59,5.16l-13.27,61.23h.29c9.74-13.13,20.66-20.95,27.3-24.49,3.83-2.07,7.22-3.1,9.88-3.1,3.69,0,7.82,2.66,4.13,18.74l-7.67,33c-.89,4.28-.74,5.31.44,5.31,1.48,0,6.05-2.8,10.18-6.79Z" transform="translate(-12.85)"/><path class="cls-5" d="M462.29,594c-8.7,9.44-17,14.31-20.8,14.31s-5-4-2.36-15.35c2.8-11.06,5.31-21.83,8-32.75,2.06-8.41,1.18-10.62-1.18-10.62-6.49,0-23.61,18.29-31,30.83-1.77,7.23-4,16.08-5.75,24.94a70,70,0,0,0-10.62,3l-.89-1.18c4-15.94,8.41-33.64,11.95-50,1.18-4.72.74-5.9-.15-5.9-1.32,0-5.9,3.1-9.58,6.64L398,554.35c8-8.71,16.67-14,20.8-14,3.39,0,4,5,1.18,16.38l-3.1,12.83h.3c10-13.72,21-22.27,27.14-26,3.84-2.22,6.94-3.25,9.89-3.25,3.54,0,7.67,2.21,3.24,21.1-2.36,10-4.72,20.36-7.22,30.69-.89,4-.74,5.31.29,5.31,1.33,0,5.31-2.66,9.74-6.94Z" transform="translate(-12.85)"/><path class="cls-5" d="M536.35,593c-8,9.89-17.85,15.35-21.54,15.35-2.8,0-4.72-2.22-2.65-13l3-14h-.3a106.39,106.39,0,0,1-19,20.36c-4.87,4-9.74,6.64-13.72,6.64s-8.56-4.87-8.56-16.68c0-14.9,6.94-31,17.71-40,7.37-6.19,18.14-11.36,27.44-11.36a48.31,48.31,0,0,1,9.15,1,28.5,28.5,0,0,0,5.6.89l.45.59c-2.37,9.15-6.79,29.21-10.19,47.95-1,5.16-.58,6.34.3,6.34,1.18,0,6.34-3.39,10.62-7.67Zm-19.18-23c1.63-5.9,3.84-16.53,4.87-21.25a24.74,24.74,0,0,0-9.88-2.06,18.39,18.39,0,0,0-10.48,3.09c-10,7.38-15.93,24.79-15.93,39.4,0,6.64,1.92,9.73,4,9.73C495.49,598.9,512.16,580.17,517.17,570Z" transform="translate(-12.85)"/><path class="cls-5" d="M650.39,594.18c-7.81,8.71-17.11,14.17-20.8,14.17s-4.87-4.43-2.36-15.2l8.12-34.08c1.62-7.23.73-9.59-1.48-9.59-6.93,0-24.93,20.95-30.1,30.83-1.77,6.94-4,16.82-5.75,25.38a45.9,45.9,0,0,0-10.77,2.66l-.89-1c3.69-14.9,7.53-29.95,10.63-44.26,2.06-10,1.91-13.57-1.18-13.57-7.09,0-25.09,21.39-29.81,30.83-1.92,6.64-4.13,16.53-6,25.38a48.73,48.73,0,0,0-10.62,2.66l-1-1c4.42-16.67,8.56-33.49,12.24-50.16,1.18-5.31.89-6.34-.14-6.34-1.48,0-6.64,4-10.18,7.23l-1.77-3.54c8.26-8.86,17-14.17,20.8-14.17s4.28,5.46,1.18,18.15L567.92,569h.3c10-14.16,20.21-22.13,26.41-25.67,3.39-1.92,6.19-2.95,9.14-2.95,4,0,7.67,3.69,3.54,22.43l-1.32,6h.29c10-14,20.66-22.13,27-25.68,3.69-2.06,6.2-2.8,9-2.8,3,0,7.82,1.77,3.1,21.39l-7.23,30.84c-.89,3.69-.59,4.72.29,4.72,1.18,0,5.76-2.65,10-6.64Z" transform="translate(-12.85)"/><path class="cls-5" d="M671.93,506.55c11.51-1.33,19.62-5,22-5,1.48,0,1.48,1.47.74,4.57-5,20.22-9,37.48-13.13,56.36h.29c12.69-15.49,25.23-22.13,32-22.13,6.49,0,10.47,6.49,10.47,16.23,0,16.23-9.73,35-22.72,43.67-8.85,6-16.82,8.12-22.28,8.12A14.31,14.31,0,0,1,667.5,602c-2.21-3.54-2.8-8.85-.88-18.44,4.13-20.21,9.29-42.49,14.16-66.24,1.33-6.64.88-7.09-4.87-7.09l-4.28-.14Zm22.42,92.8c8.71-5.17,17.71-22.28,17.71-40.28,0-7.53-2.22-10.62-5-10.62-5.16,0-17.41,9.44-26.85,22.86a86.16,86.16,0,0,0-2.66,11.51c-2.65,14.46,3.1,18.74,9.15,18.74A16,16,0,0,0,694.35,599.35Z" transform="translate(-12.85)"/><path class="cls-5" d="M762.66,593.59c-4.87,6-16.38,14.76-21.54,14.76-3,0-4.87-2.36-1.92-14.46l9.15-37.77c.88-3.25.88-4.72-.15-4.72-1.18,0-5.61,2.5-10,6.34l-1.77-3.39c8.11-8,18.44-14,22.42-14,3.25,0,3.1,4.72,1.48,11.66l-10.18,40.72c-.89,3.54-.59,4.72.29,4.72,1.77,0,6.94-3.84,10.33-6.94Zm3.83-75c0,4.58-3.39,8.56-7.81,8.56-3.55,0-6-2.65-6.2-6.49s2.95-8.71,8.11-8.71C764.43,512,766.35,515.1,766.49,518.64Z" transform="translate(-12.85)"/><path class="cls-5" d="M811.36,591.67c-13,13.87-24,16.68-31.13,16.68-6.78,0-16.23-4-16.23-21.54,0-13.87,6-29.36,17.71-38.22,6.34-4.87,14.16-8.26,20.36-8.26,7.82,0,13,5.46,13,11.8,0,14.61-24.78,22.58-38.95,26.12a27.42,27.42,0,0,0-.29,4.72c0,8,2.51,16.67,11.51,16.67,6.19,0,14.16-4.13,21.54-11.36Zm-20.8-43.52c-4,2.21-11.36,9-13.87,25.52,21.1-5.6,27.3-12.39,27.3-19.17,0-5.17-3.1-8.12-7.38-8.12A12.09,12.09,0,0,0,790.56,548.15Z" transform="translate(-12.85)"/><path class="cls-5" d="M889.56,594c-8.71,9.44-17,14.31-20.81,14.31s-5-4-2.36-15.35c2.81-11.06,5.31-21.83,8-32.75,2.06-8.41,1.18-10.62-1.18-10.62-6.49,0-23.61,18.29-31,30.83-1.77,7.23-4,16.08-5.76,24.94a70.34,70.34,0,0,0-10.62,3l-.89-1.18c4-15.94,8.41-33.64,12-50,1.18-4.72.74-5.9-.14-5.9-1.33,0-5.9,3.1-9.59,6.64l-1.92-3.54c8-8.71,16.67-14,20.8-14,3.4,0,4,5,1.18,16.38l-3.1,12.83h.3c10-13.72,21-22.27,27.15-26,3.83-2.22,6.93-3.25,9.88-3.25,3.54,0,7.67,2.21,3.25,21.1-2.36,10-4.72,20.36-7.23,30.69-.89,4-.74,5.31.29,5.31,1.33,0,5.31-2.66,9.74-6.94Z" transform="translate(-12.85)"/><path class="cls-5" d="M937.64,547.71l-14.6.74-8.71,40.72c-1.47,7.23-.74,8.85.89,8.85,2.5,0,9.73-4.87,13.27-8.56l2.07,3.1c-4.87,5.9-15.93,15.79-23.75,15.79-3.4,0-6.35-4.28-3.1-19.48l8.7-40.42H901.49l-.44-1.33,3.69-4.43h8.85l3.4-14,11.21-9.15,1.33.88-5.17,22.28h17.12Z" transform="translate(-12.85)"/><path class="cls-5" d="M990.75,591.67c-13,13.87-24,16.68-31.13,16.68-6.79,0-16.23-4-16.23-21.54,0-13.87,6.05-29.36,17.71-38.22,6.34-4.87,14.16-8.26,20.36-8.26,7.82,0,13,5.46,13,11.8,0,14.61-24.79,22.58-39,26.12a27.42,27.42,0,0,0-.29,4.72c0,8,2.5,16.67,11.5,16.67,6.2,0,14.17-4.13,21.54-11.36ZM970,548.15c-4,2.21-11.36,9-13.87,25.52,21.1-5.6,27.29-12.39,27.29-19.17,0-5.17-3.09-8.12-7.37-8.12A12.09,12.09,0,0,0,970,548.15Z" transform="translate(-12.85)"/><path class="cls-5" d="M1045.48,506.55c11.51-1.33,19.62-5,22-5,1.48,0,1.48,1.47.74,4.57-5,20.22-9,37.48-13.13,56.36h.3c12.68-15.49,25.23-22.13,32-22.13,6.49,0,10.48,6.49,10.48,16.23,0,16.23-9.74,35-22.72,43.67-8.86,6-16.82,8.12-22.28,8.12a14.31,14.31,0,0,1-11.8-6.35c-2.22-3.54-2.81-8.85-.89-18.44,4.13-20.21,9.29-42.49,14.16-66.24,1.33-6.64.89-7.09-4.87-7.09l-4.27-.14Zm22.43,92.8c8.7-5.17,17.7-22.28,17.7-40.28,0-7.53-2.21-10.62-5-10.62-5.17,0-17.41,9.44-26.86,22.86a86.43,86.43,0,0,0-2.65,11.51c-2.66,14.46,3.1,18.74,9.14,18.74A16,16,0,0,0,1067.91,599.35Z" transform="translate(-12.85)"/><path class="cls-5" d="M1133.27,593.59c-4.86,6-16.37,14.76-21.54,14.76-3,0-4.87-2.36-1.91-14.46l9.14-37.77c.89-3.25.89-4.72-.14-4.72s-5.61,2.5-10,6.34l-1.77-3.39c8.12-8,18.44-14,22.43-14,3.24,0,3.1,4.72,1.47,11.66l-10.18,40.72c-.88,3.54-.59,4.72.3,4.72,1.77,0,6.93-3.84,10.33-6.94Zm3.84-75c0,4.58-3.39,8.56-7.82,8.56-3.54,0-6-2.65-6.2-6.49,0-3.69,3-8.71,8.12-8.71C1135,512,1137,515.1,1137.11,518.64Z" transform="translate(-12.85)"/><path class="cls-5" d="M1140.5,597.72c-.15-2.5,1.77-4.72,4.28-6.19,1.77-.89,3-.59,3.69.44,3.83,5.75,9.29,9,14.16,9,5.9,0,9.74-4.13,9.74-8.85,0-3.69-1.62-6.94-8.56-12.4-6.64-5-12.83-10.47-12.83-18,0-4.42,1.77-9.14,7.67-14.31,4.57-4,11.65-7.08,16.37-7.08,6.5,0,11.51,4.43,11.51,8.26a7.13,7.13,0,0,1-3.69,6c-1.47.89-2.36.59-3.24-.59-2.95-3.69-6.49-6.64-11.51-6.64a7.92,7.92,0,0,0-8,8.27c0,5.31,4.28,9,9.59,13.13,8.86,6.64,12.4,10.91,12.4,17.26,0,11.21-14.76,22.28-26.71,22.28C1148.47,608.35,1140.5,602.89,1140.5,597.72Z" transform="translate(-12.85)"/><path class="cls-5" d="M1257.05,593.59c-4.87,6-16.38,14.76-21.54,14.76-3,0-4.87-2.36-1.92-14.46l9.15-37.77c.88-3.25.88-4.72-.15-4.72s-5.61,2.5-10,6.34l-1.77-3.39c8.11-8,18.44-14,22.42-14,3.25,0,3.1,4.72,1.48,11.66l-10.18,40.72c-.89,3.54-.59,4.72.29,4.72,1.77,0,6.94-3.84,10.33-6.94Zm3.83-75c0,4.58-3.39,8.56-7.82,8.56-3.54,0-6-2.65-6.19-6.49,0-3.69,3-8.71,8.11-8.71C1258.82,512,1260.74,515.1,1260.88,518.64Z" transform="translate(-12.85)"/><path class="cls-5" d="M1334.21,594c-8.7,9.44-17,14.31-20.8,14.31s-5-4-2.36-15.35c2.8-11.06,5.31-21.83,8-32.75,2.06-8.41,1.17-10.62-1.19-10.62-6.49,0-23.6,18.29-31,30.83-1.77,7.23-4,16.08-5.75,24.94a70.49,70.49,0,0,0-10.63,3l-.88-1.18c4-15.94,8.41-33.64,12-50,1.18-4.72.74-5.9-.15-5.9-1.33,0-5.9,3.1-9.59,6.64l-1.91-3.54c8-8.71,16.67-14,20.8-14,3.39,0,4,5,1.18,16.38l-3.1,12.83h.29c10-13.72,21-22.27,27.15-26,3.84-2.22,6.94-3.25,9.89-3.25,3.54,0,7.67,2.21,3.24,21.1-2.36,10-4.72,20.36-7.23,30.69-.88,4-.73,5.31.3,5.31,1.33,0,5.31-2.66,9.74-6.94Z" transform="translate(-12.85)"/><path class="cls-5" d="M1341.44,597.72c-.15-2.5,1.77-4.72,4.27-6.19,1.77-.89,3-.59,3.69.44,3.84,5.75,9.3,9,14.17,9,5.9,0,9.73-4.13,9.73-8.85,0-3.69-1.62-6.94-8.55-12.4-6.64-5-12.84-10.47-12.84-18,0-4.42,1.77-9.14,7.67-14.31,4.58-4,11.66-7.08,16.38-7.08,6.49,0,11.51,4.43,11.51,8.26a7.15,7.15,0,0,1-3.69,6c-1.48.89-2.36.59-3.25-.59-3-3.69-6.49-6.64-11.5-6.64a7.92,7.92,0,0,0-8,8.27c0,5.31,4.28,9,9.59,13.13,8.85,6.64,12.39,10.91,12.39,17.26,0,11.21-14.75,22.28-26.7,22.28C1349.4,608.35,1341.44,602.89,1341.44,597.72Z" transform="translate(-12.85)"/><path class="cls-5" d="M1479.08,510.82c28.48,0,46.92,11.81,46.92,40,0,18.59-8.85,35-24.35,44.7-12.54,8.12-26.7,11.07-45.14,11.07h-32l1-4c11.37-1.18,12.4-2.21,14.61-13.72l11.51-60.19c2.21-11.66,1.62-12.4-10.18-14l.88-3.84Zm-26.56,76.72c-1.32,7.38-1,10.18,1.63,11.66,2.51,1.47,6.34,2.06,10.77,2.06,29.95,0,47.06-23.6,47.06-51.19,0-22.57-13.13-34.38-34.52-34.38-4.43,0-7.82.45-9.74,1.48-1.47.88-2.36,2.51-3.25,7.38Z" transform="translate(-12.85)"/><path class="cls-5" d="M1581.47,591.67c-13,13.87-24,16.68-31.13,16.68-6.79,0-16.23-4-16.23-21.54,0-13.87,6.05-29.36,17.7-38.22,6.34-4.87,14.16-8.26,20.36-8.26,7.82,0,13,5.46,13,11.8,0,14.61-24.78,22.58-39,26.12a27.42,27.42,0,0,0-.29,4.72c0,8,2.51,16.67,11.51,16.67,6.19,0,14.16-4.13,21.54-11.36Zm-20.81-43.52c-4,2.21-11.36,9-13.87,25.52,21.1-5.6,27.3-12.39,27.3-19.17,0-5.17-3.1-8.12-7.38-8.12A12.15,12.15,0,0,0,1560.66,548.15Z" transform="translate(-12.85)"/><path class="cls-5" d="M1632.66,547.71l-14.61.74-8.7,40.72c-1.48,7.23-.74,8.85.88,8.85,2.51,0,9.74-4.87,13.28-8.56l2.07,3.1c-4.87,5.9-15.94,15.79-23.76,15.79-3.39,0-6.34-4.28-3.1-19.48l8.71-40.42h-10.92l-.44-1.33,3.69-4.43h8.85l3.39-14,11.22-9.15,1.32.88-5.16,22.28h17.11Z" transform="translate(-12.85)"/><path class="cls-5" d="M1698.9,593c-8,9.89-17.85,15.35-21.54,15.35-2.8,0-4.72-2.22-2.65-13l3-14h-.3a106.39,106.39,0,0,1-19,20.36c-4.87,4-9.74,6.64-13.72,6.64s-8.56-4.87-8.56-16.68c0-14.9,6.93-31,17.7-40,7.38-6.19,18.15-11.36,27.45-11.36a48.12,48.12,0,0,1,9.14,1,28.7,28.7,0,0,0,5.61.89l.44.59c-2.36,9.15-6.78,29.21-10.18,47.95-1,5.16-.59,6.34.3,6.34,1.18,0,6.34-3.39,10.62-7.67Zm-19.18-23c1.62-5.9,3.84-16.53,4.87-21.25a24.78,24.78,0,0,0-9.88-2.06,18.39,18.39,0,0,0-10.48,3.09c-10,7.38-15.93,24.79-15.93,39.4,0,6.64,1.91,9.73,4,9.73C1658,598.9,1674.71,580.17,1679.72,570Z" transform="translate(-12.85)"/><path class="cls-5" d="M1737.4,593.59c-4.87,6-16.37,14.76-21.54,14.76-2.95,0-4.87-2.36-1.92-14.46l9.15-37.77c.89-3.25.89-4.72-.15-4.72s-5.6,2.5-10,6.34l-1.77-3.39c8.12-8,18.44-14,22.43-14,3.24,0,3.1,4.72,1.47,11.66l-10.18,40.72c-.88,3.54-.59,4.72.3,4.72,1.77,0,6.93-3.84,10.32-6.94Zm3.84-75c0,4.58-3.39,8.56-7.82,8.56-3.54,0-6.05-2.65-6.2-6.49s3-8.71,8.12-8.71C1739.17,512,1741.09,515.1,1741.24,518.64Z" transform="translate(-12.85)"/><path class="cls-5" d="M1773.69,592.56c-7.67,9.15-18.14,15.79-22.72,15.79-2.8,0-5.16-3.4-2.06-17.86,5.16-24.19,10.33-48.39,15.34-72.73,1.48-6.35.59-7.38-6.19-7.38l-4-.15.59-3.54c11.51-1.32,19.92-5.16,21.84-5.16,1.33,0,1.47,1.33.88,4.43-6.05,28.47-12.09,57.09-18.29,86.3-.89,4.28-.3,5.17.59,5.17,1.62,0,7.67-3.84,11.8-8.12Z" transform="translate(-12.85)"/><path class="cls-5" d="M1783.58,600.23c0-5.6,3.83-9.74,9-9.74,4.42,0,7.67,3.55,7.67,8.41a9,9,0,0,1-9.15,9.45C1786.68,608.35,1783.58,605,1783.58,600.23Zm32.75-87.34c-.44,2.36-1.48,5.61-3.1,11.66-5.16,17.85-9.74,35.26-14.9,53.11-.88,1-4.13,1-4.57,0,1.92-17.71,3.83-35.26,5.46-53,.59-6.19,1-9.59,1.32-12,.59-3.1,3.4-4.13,8.86-4.13C1814.71,508.61,1816.92,509.94,1816.33,512.89Z" transform="translate(-12.85)"/></g></g></g></svg>