<?xml version="1.0" standalone="no"?>
<!DOCTYPE svg PUBLIC "-//W3C//DTD SVG 20010904//EN"
 "http://www.w3.org/TR/2001/REC-SVG-20010904/DTD/svg10.dtd">
<svg version="1.0" xmlns="http://www.w3.org/2000/svg"
 width="2445.000000pt" height="2445.000000pt" viewBox="0 0 2445.000000 2445.000000"
 preserveAspectRatio="xMidYMid meet">
<metadata>
Created by potrace 1.11, written by Peter Selinger 2001-2013
</metadata>
<g transform="translate(0.000000,2445.000000) scale(0.100000,-0.100000)"
fill="#000000" stroke="none">
<path d="M14667 20778 c8 -134 6 -392 -2 -468 -11 -93 -13 -252 -4 -305 4 -22
10 -56 13 -75 13 -76 18 -96 52 -182 39 -100 52 -156 48 -208 -11 -137 -11
-219 1 -315 13 -111 16 -130 35 -240 6 -33 15 -85 20 -115 6 -30 12 -64 14
-75 2 -11 7 -45 11 -75 4 -30 9 -64 12 -75 2 -11 5 -68 7 -128 3 -86 0 -113
-14 -139 -28 -54 -40 -55 -132 -21 -188 71 -247 64 -288 -32 -37 -87 -87 -87
-304 -1 -162 65 -222 83 -263 80 -13 -1 -32 -2 -42 -3 -11 0 -41 -19 -66 -41
-44 -38 -58 -45 -117 -54 -41 -7 -156 20 -313 74 -245 83 -318 91 -417 45 -40
-19 -63 -22 -121 -20 -40 2 -83 6 -97 10 -14 3 -34 8 -46 10 -12 3 -66 19
-120 36 -241 76 -274 81 -474 82 -180 1 -429 -8 -480 -17 -14 -3 -45 -7 -70
-10 -25 -3 -65 -9 -90 -12 -25 -3 -85 -15 -135 -27 -75 -18 -118 -22 -265 -21
-153 0 -245 5 -340 19 -14 2 -56 7 -95 11 -38 3 -77 8 -86 9 -50 10 -207 18
-289 16 -160 -5 -282 -4 -342 3 -32 3 -83 8 -115 11 -31 3 -59 7 -62 9 -3 2
-31 7 -62 10 -31 4 -67 9 -80 11 -13 3 -39 7 -59 10 -20 3 -47 8 -60 10 -14 3
-61 12 -105 20 -64 12 -248 52 -325 71 -77 18 -166 46 -220 68 -36 15 -74 30
-85 33 -70 18 -212 43 -280 48 -82 6 -326 7 -380 1 -16 -2 -61 -6 -100 -10
-109 -10 -145 -17 -142 -28 3 -17 -201 -79 -310 -94 -26 -3 -57 -10 -68 -14
-11 -4 -24 -8 -30 -9 -68 -11 -205 -59 -316 -110 -63 -29 -161 -59 -216 -66
-26 -4 -58 -8 -71 -10 -13 -2 -68 -5 -124 -6 -123 -2 -159 -12 -223 -60 -28
-21 -69 -42 -91 -47 -53 -12 -182 -7 -289 12 -16 3 -73 12 -125 21 -52 8 -106
17 -120 19 -292 50 -566 56 -720 16 -120 -31 -421 -34 -715 -5 -285 27 -542
27 -622 -2 -10 -3 -38 -15 -62 -25 -61 -27 -157 -46 -211 -41 -81 7 -178 42
-368 134 -103 50 -198 95 -212 101 -14 6 -32 14 -40 17 -8 4 -55 20 -105 35
-320 96 -391 126 -500 206 -83 61 -158 98 -231 113 -92 20 -390 16 -539 -7
-16 -3 -52 -8 -80 -11 -27 -4 -88 -13 -135 -20 -47 -8 -113 -17 -147 -20 -35
-3 -91 -8 -125 -11 -35 -3 -79 -7 -98 -9 -283 -24 -424 -55 -511 -112 -49 -32
-92 -127 -93 -204 -1 -62 38 -154 100 -234 19 -25 34 -49 34 -54 0 -5 4 -11 8
-13 21 -8 135 -194 187 -303 54 -113 126 -226 182 -286 22 -24 173 -412 173
-445 0 -23 -159 -229 -260 -337 -59 -63 -101 -87 -202 -111 -127 -31 -350 -60
-490 -65 l-28 -1 0 -78 0 -78 157 -53 c87 -30 167 -62 178 -71 11 -10 43 -30
72 -45 29 -14 78 -54 110 -88 32 -35 70 -70 85 -80 41 -26 98 -87 144 -153 69
-101 116 -167 157 -221 59 -79 68 -114 46 -174 -11 -27 -19 -62 -19 -77 0 -32
33 -100 91 -192 49 -77 59 -126 32 -155 -10 -11 -41 -47 -67 -80 -27 -33 -82
-94 -122 -135 -143 -148 -188 -211 -267 -382 -87 -188 -98 -201 -267 -318
-132 -91 -180 -137 -216 -208 -26 -51 -29 -67 -29 -152 0 -65 6 -111 18 -145
l17 -50 145 -49 c187 -63 216 -83 245 -174 13 -40 35 -84 53 -105 18 -20 40
-45 49 -56 20 -23 58 -99 58 -115 0 -6 29 -78 64 -159 57 -133 62 -152 55
-190 -8 -46 -52 -93 -121 -128 -40 -21 -148 -122 -148 -140 0 -5 -13 -38 -29
-72 -15 -34 -49 -125 -74 -202 -159 -489 -168 -519 -168 -569 0 -63 17 -113
78 -224 25 -48 58 -108 71 -133 14 -26 37 -51 52 -57 33 -15 153 -129 202
-192 40 -51 58 -97 58 -146 0 -53 27 -110 115 -244 46 -69 100 -156 120 -193
20 -38 52 -83 71 -99 19 -17 39 -40 45 -50 10 -19 8 -20 -33 -13 -23 4 -54 9
-68 11 -14 3 -60 12 -103 20 -44 9 -91 17 -105 19 -15 2 -61 11 -102 21 -41 9
-86 18 -100 21 l-25 5 24 -17 c29 -22 241 -145 249 -145 3 0 13 -6 21 -14 9
-7 48 -30 86 -51 78 -41 96 -55 75 -55 -33 0 -310 -246 -310 -276 0 -8 12 -9
38 -5 111 20 167 -12 217 -121 33 -72 38 -133 20 -213 -8 -35 -17 -80 -20
-101 -3 -22 -7 -48 -9 -59 -3 -11 -5 -82 -5 -157 -1 -118 -3 -137 -16 -132 -9
4 -15 0 -16 -7 -1 -16 -2 -21 -23 -114 -14 -59 -48 -142 -86 -205 -32 -55 -74
-180 -85 -255 -3 -23 -7 -50 -9 -61 -2 -12 -7 -45 -11 -75 -4 -30 -8 -56 -10
-59 -6 -10 -18 -146 -18 -205 -1 -78 11 -188 29 -294 14 -83 16 -87 106 -205
157 -208 172 -265 124 -471 -87 -367 -105 -415 -284 -735 -14 -25 -38 -70 -55
-100 -16 -30 -33 -59 -37 -65 -4 -5 -23 -39 -42 -75 -44 -82 -86 -156 -110
-195 -10 -16 -18 -33 -18 -36 0 -5 93 31 288 111 228 94 376 157 412 175 80
40 193 74 285 85 82 10 282 63 362 97 29 12 69 11 123 0 8 -2 33 -7 55 -12 82
-16 234 -59 320 -90 39 -15 149 -51 245 -81 109 -35 224 -80 305 -120 71 -35
128 -64 125 -65 -3 0 -14 -2 -25 -4 -32 -6 -89 -18 -100 -21 -36 -10 -191 -30
-308 -39 -87 -7 -158 -32 -277 -98 -128 -71 -146 -78 -205 -72 -166 18 -179
17 -495 -70 -113 -30 -216 -58 -230 -60 -14 -3 -36 -7 -50 -11 -14 -3 -52 -11
-85 -18 -85 -19 -111 -31 -136 -66 -31 -41 -33 -68 -9 -107 27 -45 76 -56 240
-53 303 4 422 -1 491 -20 38 -11 191 -15 229 -6 14 3 43 8 65 11 22 3 63 9 90
13 65 9 220 8 365 -2 184 -14 558 -8 691 10 19 2 99 6 179 9 239 8 330 15 409
31 146 31 286 20 473 -36 127 -38 331 -67 533 -75 132 -5 173 -10 330 -34 84
-13 171 -19 290 -18 190 0 191 0 339 -80 174 -95 306 -118 566 -99 47 3 103 9
125 12 136 19 232 28 310 28 87 -1 285 -11 325 -18 14 -3 59 -7 101 -11 42 -3
87 -8 100 -10 13 -2 55 -6 92 -10 37 -3 76 -8 85 -9 9 -2 49 -7 87 -10 39 -4
81 -9 95 -11 125 -19 246 -26 555 -30 165 -2 309 -6 320 -8 11 -3 47 -8 80
-11 33 -4 67 -9 75 -11 8 -2 29 -7 45 -10 48 -8 64 -12 170 -39 55 -14 116
-28 135 -31 19 -4 58 -10 85 -15 28 -5 59 -11 70 -14 11 -2 58 -7 105 -11 47
-4 99 -9 115 -11 17 -2 111 -3 210 -2 331 2 340 2 368 -16 41 -28 59 -63 59
-118 -1 -59 -47 -187 -71 -195 -111 -39 -207 -108 -291 -208 -45 -54 -144
-169 -185 -215 -22 -25 -53 -61 -70 -81 -16 -19 -61 -69 -99 -112 -38 -43 -67
-79 -65 -81 15 -12 144 -83 239 -130 146 -73 175 -72 360 12 64 29 127 47 205
58 22 3 76 12 120 19 44 8 98 17 120 20 22 4 47 8 55 10 8 2 42 7 75 10 33 4
67 8 75 10 22 5 163 14 325 21 77 3 158 7 180 9 171 17 284 20 380 11 102 -10
166 -14 300 -21 635 -30 1327 -34 1630 -10 104 8 142 14 225 35 41 11 91 22
110 25 19 3 46 7 60 10 28 5 97 12 180 20 30 3 74 8 97 11 l42 6 -52 62 c-28
33 -55 63 -58 66 -14 12 -310 362 -359 425 -30 39 -57 72 -60 75 -3 3 -42 52
-86 110 -179 236 -205 295 -314 700 -16 58 -37 137 -47 175 -17 64 -19 94 -10
135 2 8 7 32 12 54 l8 38 78 -6 c43 -4 87 -9 96 -10 10 -2 49 -7 86 -11 37 -3
76 -8 85 -9 9 -2 43 -7 76 -11 72 -8 107 -15 117 -20 8 -5 63 -95 170 -275
100 -170 176 -267 334 -427 287 -290 400 -412 518 -557 129 -161 290 -318 637
-622 113 -98 252 -220 309 -271 104 -92 184 -143 228 -143 27 0 80 19 241 85
62 25 161 57 220 70 95 21 291 80 347 105 252 111 259 114 371 190 51 35 121
16 354 -100 72 -35 146 -62 235 -85 173 -44 274 -74 495 -147 101 -33 200 -63
220 -66 73 -11 389 -5 680 13 213 13 265 15 410 20 85 3 169 7 185 9 70 8 144
17 162 20 11 3 44 7 74 11 30 4 56 8 59 10 3 2 28 6 55 9 28 4 66 11 85 16 19
5 52 11 72 14 30 5 207 42 288 61 21 5 235 51 350 76 52 11 106 22 120 25 21
3 52 11 80 19 3 1 25 5 50 9 138 23 745 205 855 256 11 5 66 28 123 50 356
144 481 238 967 725 175 176 320 327 419 439 48 55 185 225 210 263 15 23 40
77 55 120 31 88 65 168 110 261 17 34 31 65 31 67 0 3 16 37 35 76 29 59 119
181 184 249 499 523 479 499 515 623 29 100 40 192 40 332 0 196 -26 319 -99
465 -56 113 -110 272 -129 380 -3 19 -8 44 -10 56 -2 12 -7 45 -11 74 -4 29
-8 61 -10 71 -2 10 -6 54 -10 96 -3 43 -7 89 -10 103 -2 14 -6 45 -9 70 -20
169 -109 328 -210 376 -28 13 -85 56 -126 95 -86 82 -318 290 -404 364 -32 28
-63 55 -70 60 -43 39 -145 110 -221 154 l-89 51 -3 62 c-1 35 -11 83 -23 110
-28 65 -26 84 18 153 79 127 118 162 193 169 53 5 70 21 64 60 -9 48 -59 142
-126 235 -103 144 -112 168 -110 296 3 209 1 205 184 352 71 57 114 128 119
193 3 43 -12 142 -28 185 -18 52 345 -323 527 -542 25 -30 29 -31 80 -27 30 3
70 6 89 8 82 7 121 49 134 148 8 62 53 242 71 284 8 19 11 34 8 34 -3 0 -1 6
4 13 11 14 33 94 39 147 9 71 27 115 73 184 54 80 119 208 125 246 5 37 -11
60 -59 81 -49 22 -80 56 -94 103 -5 17 -30 79 -55 138 -25 59 -50 136 -57 170
-14 77 -13 73 -28 127 -32 111 -100 224 -202 335 -97 105 -92 93 -84 214 4 59
13 123 19 143 19 54 112 190 150 219 55 40 83 90 142 250 60 163 63 169 138
281 59 88 118 210 119 247 2 49 -25 120 -60 162 -19 22 -45 67 -58 100 -13 33
-33 73 -45 90 -28 40 -76 147 -84 190 -4 19 -9 82 -12 140 -8 159 -14 178 -66
226 -39 38 -67 52 -90 49 -20 -3 -108 -63 -108 -73 0 -4 -19 -27 -41 -52 -77
-84 -147 -175 -173 -223 -42 -79 -207 -349 -240 -391 -26 -34 -55 -59 -157
-136 -15 -11 -39 -39 -55 -63 -16 -23 -32 -46 -37 -52 -4 -5 -33 -47 -65 -91
-31 -45 -78 -105 -103 -134 l-46 -53 -18 52 c-25 76 -29 106 -29 201 1 81 12
229 19 240 2 3 6 34 9 70 4 36 8 72 11 80 2 8 6 35 9 60 3 25 8 56 11 70 2 13
7 40 10 60 3 20 7 47 10 60 3 13 7 42 10 65 3 22 8 47 11 56 3 10 6 31 9 49 2
17 6 43 10 58 3 15 7 38 10 52 3 14 9 48 15 75 5 28 12 61 14 75 3 14 16 86
31 160 14 74 28 149 30 165 8 45 24 126 32 160 3 17 8 117 10 222 l4 193 -73
102 c-40 57 -76 108 -81 113 -4 6 -33 46 -64 90 -32 44 -60 82 -63 85 -3 3
-25 34 -49 70 -25 36 -73 90 -107 120 -35 30 -69 69 -75 85 -16 40 -86 185
-102 210 -6 10 -36 57 -66 103 -50 78 -54 88 -52 140 4 137 38 249 94 307 16
17 39 50 50 75 21 42 22 60 22 288 0 282 5 269 -99 259 -55 -5 -253 -66 -331
-102 -16 -7 -56 -25 -88 -39 l-57 -25 -27 42 c-14 23 -41 65 -59 94 -51 80
-106 270 -159 553 -9 47 -34 139 -55 205 -40 123 -64 221 -76 310 -3 28 -8 58
-10 69 -2 10 -6 44 -10 75 -3 31 -7 63 -9 71 -1 8 -6 49 -10 90 -4 41 -10 84
-12 95 -12 46 -10 374 2 450 7 44 15 100 18 125 3 25 11 70 16 100 6 30 13 71
16 90 3 19 8 42 10 50 2 8 6 27 9 43 3 15 8 37 11 50 13 46 -105 -98 -141
-173 -20 -41 -43 -89 -51 -106 -9 -17 -77 -108 -152 -202 -127 -158 -176 -237
-229 -363 -11 -25 -44 -79 -74 -120 -96 -131 -106 -170 -122 -454 -5 -78 -9
-99 -27 -140 -31 -72 -87 -235 -96 -280 -10 -57 -5 -238 11 -345 26 -183 27
-274 1 -455 -2 -16 -6 -51 -10 -77 -7 -54 -12 -60 -83 -86 -84 -32 -134 -18
-189 54 -42 55 -103 112 -137 130 -53 26 -431 130 -546 150 -14 3 -47 9 -75
14 -27 5 -68 12 -90 16 -22 3 -51 7 -65 9 -14 2 -56 7 -95 11 -38 3 -83 8
-100 9 -166 18 -426 23 -620 11 -121 -7 -378 -8 -410 -2 -11 2 -42 7 -70 10
-71 10 -233 42 -285 57 -53 15 -59 16 -85 23 -11 3 -45 12 -75 21 -156 46
-249 66 -313 68 -65 1 -280 -9 -367 -17 -19 -2 -78 -7 -130 -10 -52 -4 -122
-9 -154 -11 -33 -3 -92 -7 -133 -10 -40 -3 -104 -7 -142 -11 l-69 -5 -57 95
c-31 53 -71 106 -88 119 -71 52 -124 115 -141 169 -14 46 -41 98 -89 172 -34
55 -126 167 -193 238 -35 37 -102 119 -149 182 -91 122 -128 166 -274 327
-128 140 -205 227 -356 399 -70 80 -139 159 -154 175 -14 17 -118 135 -229
263 -112 127 -205 232 -206 232 -2 0 -1 -33 1 -72z"/>
</g>
</svg>
